# xmcd
#
# Track frame offsets: 
#        150
#        17270
#        34249
#        55148
#        67412
#        90059
#        111391
#        126032
#
# Disc length: 1911 seconds
#
# Revision: 0
# Processed by: cddbd v1.4PL0 Copyright (c) Steve Scherf et al.
# Submitted via: ExactAudioCopy v0.90b4
#
DISCID=62077508
DTITLE=A.C. Reed And His Spark Plugs - Take These Blues And Shove 'Em
DYEAR=1982
DGENRE=Blues
TTITLE0=Things That Get Me Off
TTITLE1=I Stay Mad
TTITLE2=I Got The Blues
TTITLE3=I'm A Jealous Man
TTITLE4=I Am Fed Up With This Music
TTITLE5=My Baby Is Fine
TTITLE6=Howlin' For My Darling
TTITLE7=Lotta Loving
EXTD=
EXTT0=
EXTT1=
EXTT2=
EXTT3=
EXTT4=
EXTT5=
EXTT6=
EXTT7=
PLAYORDER=
